<?xml version="1.0"?>
<svg xmlns="http://www.w3.org/2000/svg" xmlns:xlink="http://www.w3.org/1999/xlink" xmlns:svgjs="http://svgjs.com/svgjs" version="1.1" width="512" height="512" x="0" y="0" viewBox="0 0 512 512" style="enable-background:new 0 0 512 512" xml:space="preserve"><g><linearGradient xmlns="http://www.w3.org/2000/svg" id="SVGID_1_" gradientUnits="userSpaceOnUse" x1="256" x2="256" y1="512" y2="0"><stop offset="0" stop-color="#ffbef9"/><stop offset="1" stop-color="#fff1ff"/></linearGradient><linearGradient xmlns="http://www.w3.org/2000/svg" id="SVGID_2_" gradientUnits="userSpaceOnUse" x1="256" x2="256" y1="105" y2="407"><stop offset="0" stop-color="#a93aff"/><stop offset="1" stop-color="#ff81ff"/></linearGradient><g xmlns="http://www.w3.org/2000/svg"><g><circle cx="256" cy="256" fill="url(#SVGID_1_)" r="256" data-original="url(#SVGID_1_)" style=""/></g><g><g><path d="m282.647 131.647c0-4.906-3.977-8.882-8.882-8.882h-19.291c-3.66-10.34-13.532-17.765-25.12-17.765-11.589 0-21.46 7.425-25.12 17.765h-19.291c-4.905 0-8.882 3.976-8.882 8.882v26.647h106.588v-26.647zm35.529 8.882h-17.765v44.412c0 4.91-3.973 8.882-8.882 8.882-4.91 0-8.882-3.973-8.882-8.882v-8.882h-106.588v8.882c0 4.91-3.973 8.882-8.882 8.882-4.91 0-8.882-3.973-8.882-8.882v-44.412h-17.765c-4.91 0-8.882 3.973-8.882 8.882v248.706c0 4.91 3.973 8.882 8.882 8.882h177.647c4.91 0 8.882-3.973 8.882-8.882v-248.705c0-4.91-3.973-8.883-8.883-8.883zm-35.529 213.177h-106.588c-4.91 0-8.882-3.973-8.882-8.882 0-4.91 3.973-8.882 8.882-8.882h106.588c4.91 0 8.882 3.973 8.882 8.882s-3.972 8.882-8.882 8.882zm0-53.294h-106.588c-4.91 0-8.882-3.973-8.882-8.882 0-4.91 3.973-8.882 8.882-8.882h106.588c4.91 0 8.882 3.973 8.882 8.882s-3.972 8.882-8.882 8.882zm0-53.294h-106.588c-4.91 0-8.882-3.973-8.882-8.882 0-4.91 3.973-8.882 8.882-8.882h106.588c4.91 0 8.882 3.973 8.882 8.882s-3.972 8.882-8.882 8.882zm62.177 88.823h35.529v-106.588h-35.529zm26.647-177.647h-17.765c-4.91 0-8.882 3.973-8.882 8.882v44.412h35.529v-44.412c0-4.909-3.973-8.882-8.882-8.882zm-17.592 241.567c.833 4.146 4.476 7.139 8.709 7.139s7.876-2.993 8.709-7.139l9.056-46.155h-35.529z" fill="url(#SVGID_2_)" data-original="url(#SVGID_2_)" style=""/></g></g></g></g></svg>
